Coordinates
version=1
nRows=9
nColumns=63
inDegrees=yes

Units are S.I. units (second, meters, Newtons, ...)
If the header above contains a line with 'inDegrees', this indicates whether rotational values are in degrees (yes) or radians (no).

endheader
time	pelvis_tilt	pelvis_list	pelvis_rotation	pelvis_tx	pelvis_ty	pelvis_tz	hip_flexion_r	hip_adduction_r	hip_rotation_r	knee_angle_r	knee_angle_r_beta	ankle_angle_r	subtalar_angle_r	mtp_angle_r	hip_flexion_l	hip_adduction_l	hip_rotation_l	knee_angle_l	knee_angle_l_beta	ankle_angle_l	subtalar_angle_l	mtp_angle_l	L5_S1_Flex_Ext	L5_S1_Lat_Bending	L5_S1_axial_rotation	L4_L5_Flex_Ext	L4_L5_Lat_Bending	L4_L5_axial_rotation	L3_L4_Flex_Ext	L3_L4_Lat_Bending	L3_L4_axial_rotation	L2_L3_Flex_Ext	L2_L3_Lat_Bending	L2_L3_axial_rotation	L1_L2_Flex_Ext	L1_L2_Lat_Bending	L1_L2_axial_rotation	L1_T12_Flex_Ext	L1_T12_Lat_Bending	L1_T12_axial_rotation	Abs_r3	Abs_r2	Abs_r1	Abs_t1	Abs_t2	neck_flexion	neck_bending	neck_rotation	arm_flex_r	arm_add_r	arm_rot_r	elbow_flex_r	pro_sup_r	wrist_flex_r	wrist_dev_r	arm_flex_l	arm_add_l	arm_rot_l	elbow_flex_l	pro_sup_l	wrist_flex_l	wrist_dev_l
      4.07500000	     -5.15833135	      1.49942570	     90.25857093	      0.19761785	      0.39047943	      0.91299551	     -3.51814979	     -4.67855410	    -14.55740229	     12.03805249	      0.21010365	     25.22734729	     -4.07694373	      0.00000000	      2.01497122	      1.65632366	      0.78756702	     16.81951043	      0.29355584	     27.14287908	     17.24737778	      0.00000000	     -0.37002957	      0.13878990	     -2.12781039	     -0.68718192	      0.18459057	     -2.26079853	     -0.60792159	      0.33745377	     -2.26079853	     -0.42290680	      0.33745377	     -1.86183409	     -0.34360946	      0.28302037	     -1.72884594	     -0.21143490	      0.21498556	     -1.59585779	     -2.64308425	      1.57001914	    -11.83424302	      0.00000000	      0.00000000	      6.00692538	      4.61835643	     -2.78881533	    117.92332909	    -21.41339435	     33.91092095	     98.16720596	     65.14057253	    -30.72673636	     19.74768708	    117.06244092	     -9.88464744	     32.17862220	     87.25733686	     78.17855698	    -14.13166585	     10.54656680
      4.10000000	     -3.91902081	      1.20875513	     91.63574636	      0.19172923	      0.39024916	      0.91107819	     -3.05467272	     -3.34021033	    -15.67860352	     12.35706382	      0.21567145	     24.13603384	     -6.15245113	      0.00000000	      2.90617688	      0.62605602	      2.71355090	     17.92385142	      0.31283022	     27.89774801	     17.37624111	      0.00000000	     -0.34997388	      0.48359001	     -2.30612550	     -0.64993649	      0.64317471	     -2.45025834	     -0.57497209	      1.17580074	     -2.45025834	     -0.39998515	      1.17580074	     -2.01785981	     -0.32498574	      0.98613674	     -1.87372697	     -0.19997507	      0.74908092	     -1.72959412	     -2.49982843	      5.47046686	    -12.82597819	      0.00000000	      0.00000000	      4.35502030	      2.39934115	     -2.72805136	    122.19173296	    -20.61066577	     38.49428933	     96.96600517	     64.82385487	    -33.79221676	     19.96469594	    115.60681852	    -10.99504981	     28.58654384	     88.67537090	     86.26255366	     -9.82857951	     12.45270600
      4.12500000	     -3.36249766	      0.84020015	     92.37609931	      0.18785097	      0.39011351	      0.90999954	     -2.18006887	     -2.88415652	    -16.90622255	     13.14597331	      0.22944052	     23.65976552	     -7.24770586	      0.00000000	      3.62786432	      0.26002990	      4.07845444	     18.46839468	      0.32233429	     28.01179944	     17.50708440	      0.00000000	     -0.31146356	      0.67610955	     -2.37137733	     -0.57841898	      0.89922571	     -2.51958841	     -0.51170348	      1.64389277	     -2.51958841	     -0.35597170	      1.64389277	     -2.07495516	     -0.28922506	      1.37872260	     -1.92674408	     -0.17797028	      1.04729370	     -1.77853300	     -2.22475306	      7.64828649	    -13.18888928	      0.00000000	      0.00000000	      3.02001952	      0.10992667	     -3.90804145	    124.95772216	    -20.72167635	     41.28796210	     96.76957413	     65.10888968	    -33.51983194	     19.29021702	    114.89732583	    -11.87585585	     27.74351982	     89.03366991	     87.51959861	     -9.37551310	     11.16311279
      4.15000000	     -2.55660192	      0.63481328	     92.74005197	      0.18513380	      0.39023255	      0.90973224	     -1.59174623	     -2.14704583	    -18.02834634	     13.53998024	      0.23631724	     23.26962913	     -7.50811919	      0.00000000	      4.11310394	     -0.40867733	      4.98003245	     18.79543218	      0.32804218	     28.28719175	     17.47085437	      0.00000000	     -0.29916274	      0.84579616	     -2.16247331	     -0.55557513	      1.12490889	     -2.29762789	     -0.49149447	      2.05646877	     -2.29762789	     -0.34191310	      2.05646877	     -1.89216414	     -0.27780252	      1.72474752	     -1.75700956	     -0.17094159	      1.31013824	     -1.62185498	     -2.13688955	      9.56781527	    -12.02702779	      0.00000000	      0.00000000	      2.25249330	     -2.25295406	     -6.51248824	    127.17641093	    -22.19325654	     43.59452516	     96.98974065	     66.32239059	    -31.79746135	     16.37377112	    114.05161215	    -11.66189043	     26.93741823	     89.43490215	     87.78012807	     -9.07023190	      8.49270081
      4.17500000	     -2.22829229	      0.55615690	     92.61957069	      0.18511005	      0.39045607	      0.91083773	     -1.16008479	     -1.80593551	    -19.04180985	     13.73824756	      0.23977765	     23.27605855	     -6.99730075	      0.00000000	      4.39353267	     -0.75048414	      4.83887452	     18.88700011	      0.32964034	     28.38120487	     17.52987262	      0.00000000	     -0.32267466	      0.89209574	     -1.74571443	     -0.59923912	      1.18648733	     -1.85482159	     -0.53012221	      2.16904158	     -1.85482159	     -0.36878487	      2.16904158	     -1.52750013	     -0.29963569	      1.81916163	     -1.41839298	     -0.18437630	      1.38185630	     -1.30928582	     -2.30483286	     10.09156540	     -9.70913996	      0.00000000	      0.00000000	      2.36482616	     -2.58454823	     -8.74919989	    127.70942013	    -24.66892999	     43.95552120	     97.94446571	     67.38499059	    -28.49615069	     11.74040556	    113.18477677	    -11.65265491	     27.12331235	     90.91961681	     87.98835466	     -9.13502833	      4.61777785
      4.20000000	     -2.51022976	      0.21366991	     91.86334053	      0.18826652	      0.39047732	      0.91305957	     -0.45263185	     -1.93712768	    -19.48473547	     13.76593165	      0.24026083	     23.17924283	     -6.85168029	      0.00000000	      4.75609614	     -0.63577965	      4.03382520	     18.66917357	      0.32583855	     27.83367904	     17.55099647	      0.00000000	     -0.33514287	      0.78927668	     -1.28237252	     -0.62239383	      1.04973799	     -1.36252080	     -0.55060623	      1.91904733	     -1.36252080	     -0.38303479	      1.91904733	     -1.12207596	     -0.31121367	      1.60949301	     -1.04192767	     -0.19150064	      1.22258958	     -0.96177939	     -2.39389203	      8.92845569	     -7.13217125	      0.00000000	      0.00000000	      3.30837928	     -0.94730788	    -10.33113090	    125.40884390	    -28.13262267	     41.39474915	    100.92026578	     67.76943213	    -25.10307858	      7.97054575	    111.82293013	    -12.70603598	     28.30147452	     94.31695221	     88.22105586	    -10.20826972	      2.43143472
      4.22500000	     -3.00624671	     -0.36488875	     90.27496047	      0.19350333	      0.39044737	      0.91622008	      0.51701423	     -2.16678312	    -18.99174105	     13.60299463	      0.23741704	     22.51531249	     -7.43122708	      0.00000000	      5.09450092	     -0.42604130	      2.81511268	     18.03269052	      0.31472982	     26.57287154	     17.41408706	      0.00000000	     -0.33653482	      0.60578152	     -0.74983398	     -0.62497881	      0.80568942	     -0.79669861	     -0.55289305	      1.47289718	     -0.79669861	     -0.38462564	      1.47289718	     -0.65610473	     -0.31250623	      1.23530967	     -0.60924011	     -0.19229599	      0.93835557	     -0.56237549	     -2.40383455	      6.85272169	     -4.17035166	      0.00000000	      0.00000000	      5.10040149	      1.50170791	    -11.73185137	    120.43773458	    -32.78852806	     36.29390358	    106.23969604	     68.74856565	    -21.26611330	      6.90379046	    109.06387008	    -14.31115489	     29.16063068	     99.24513951	     88.40620886	    -12.51561249	      1.70170651
      4.25000000	     -3.44495142	     -1.03013998	     88.43690564	      0.19907690	      0.39060172	      0.91969711	      1.41796892	     -2.24641526	    -18.04128723	     13.09955661	      0.22863039	     21.34586452	     -8.35321802	      0.00000000	      5.35755608	     -0.31135242	      1.57392874	     17.09494850	      0.29836314	     25.12629479	     17.16368473	      0.00000000	     -0.31085613	      0.40467192	     -0.20618672	     -0.57729091	      0.53821365	     -0.21907339	     -0.51070553	      0.98391930	     -0.21907339	     -0.35527747	      0.98391930	     -0.18041338	     -0.28866100	      0.82520698	     -0.16752671	     -0.17762319	      0.62683680	     -0.15464004	     -2.22041423	      4.57772967	     -1.14674870	      0.00000000	      0.00000000	      6.79829948	      2.81632424	    -13.55860890	    112.75674744	    -38.14637272	     29.05483719	    113.25317766	     72.07246665	    -17.75273343	      8.16109568	    104.00783248	    -15.86354837	     28.55449643	    105.14156483	     88.48769299	    -14.93162427	      2.06271187
      4.27500000	     -3.76011331	     -1.71261070	     86.90612324	      0.20416975	      0.39076275	      0.92329950	      2.14637818	     -2.11583426	    -16.66876054	     12.37563263	      0.21599554	     19.76307006	     -9.91288476	      0.00000000	      5.58828839	     -0.27495632	      0.78287978	     16.00754172	      0.27938431	     23.87330827	     16.78912351	      0.00000000	     -0.26876195	      0.21730295	      0.15263857	     -0.49911782	      0.28901292	      0.16217849	     -0.44154901	      0.52835039	      0.16217849	     -0.30716803	      0.52835039	      0.13355875	     -0.24957235	      0.44312417	      0.12401884	     -0.15357058	      0.33660227	      0.11447893	     -1.91973974	      2.45817441	      0.84892996	      0.00000000	      0.00000000	      8.10762844	      2.89031446	    -14.27227994	    101.68411634	    -42.57094809	     19.26440930	    120.92568803	     77.82126646	    -14.48023452	     10.91973572	     96.59622716	    -17.82597745	     26.33692392	    111.64015534	     88.44058800	    -16.13618817	      3.66011371
